<svg xmlns="http://www.w3.org/2000/svg" viewBox="0 0 100 100" width="100" height="100"><rect width="100" height="100" rx="12" fill="#ede7ff"/><path d="M24 28 h52 a6 6 0 0 1 6 6 v28 a6 6 0 0 1 -6 6 H44 l-12 12 v-12 H24 a6 6 0 0 1 -6 -6 V34 a6 6 0 0 1 6 -6 z" fill="#b197fc" stroke="#111111" stroke-width="3" stroke-linejoin="round"/><path d="M42 41 q0 -9 8 -9 q9 0 9 9 q0 7 -9 9 v3" fill="none" stroke="#111111" stroke-width="3.5" stroke-linecap="round"/><circle cx="50" cy="61" r="2.6" fill="#111111"/></svg>